<svg xmlns="http://www.w3.org/2000/svg" width="41" height="43" viewBox="0 0 41 43" fill="none">
<path d="M16.2766 0.265949C16.2085 0.0756578 16.0543 0.00687798 15.9272 0C15.8591 0 15.6935 0.013756 15.6028 0.210925L0.0312232 36.7903C-0.118525 37.1434 0.303492 37.4598 0.593913 37.2122L7.47325 31.3292C7.52089 31.2879 7.5572 31.2375 7.57762 31.1779L9.46308 26.0354L13.8988 23.4402C14.0667 23.3416 14.2822 23.3966 14.3866 23.564L16.4876 27.0007C16.592 27.1726 16.8166 27.2253 16.9868 27.1176L21.2886 24.3641L21.4792 24.6805C25.9921 32.1683 33.0529 38.9913 40.284 42.953C40.6492 43.1525 41.0032 42.671 40.7105 42.373C32.0342 33.576 24.4447 22.585 16.2766 0.265949ZM17.4111 22.9679L15.3691 19.6275C15.267 19.4601 15.0514 19.4051 14.8812 19.5037L11.0354 21.7528L15.0832 10.7044L15.4008 11.7224C15.4122 11.7659 16.7259 15.9867 19.6959 21.535L19.8547 21.833L17.908 23.0802C17.7378 23.188 17.5132 23.1375 17.4088 22.9633L17.4111 22.9679Z" fill="#CF0C0D"/>
</svg>